*********** **** **** *** ******** *********** **** *** **********

*+* +*+*+* *+*+*+ *+* *+* *+* *+* *+* *+*+* *+* *+*

+*+ +*+ +*+*+ +*+ +*+ +*+ +*+ +*+ *+*+*+ +*+ +*+

+$+ +$+ +*+ +$+ +$++*++$++* *$* +$+ +$+ +*+ +$+ +$++*++$

+$+ +$+ +$+ +$+ +$+ +$+ +$+$ +$+ +$+ +$+$+$ +$+

$+$ $+$ $+$ $+$ $+$ $+$ $+$ $+$ $+$ $+$+$ $+$

$$$$$$$$$$$ $$$ $$$ $$$ $$$ $$$$$$$$ $$$$$$$$$$$ $$$ $$$$ $$$$$$$$$$









Another Fine Release Brought to you from - IMAGiNE





********************************************************************************************************************

Despicable Me PPVRiP AC3 XViD - IMAGiNE



********************************************************************************************************************



Ripper ...........:IMAGiNE IMDB Rating.......:7.7/10

Video Codec.......:XVID Release Date......:09/07/10

Audio Codec.......:AC3 Theatre Date......:06/11/10

Audio Bitrate.....:224 Runtime...........:1h 34mn

Subtitles.........:NIL Language..........:ENGLISH

Resolution........:688 x 384 IMDb URL.......... http://www.imdb.com/title/tt1323594/





DETAILS:



Video

ID : 0

Format : MPEG-4 Visual

Format profile : Advanced Simple@L5

Format settings, BVOP : Yes

Format settings, QPel : No

Format settings, GMC : No warppoints

Format settings, Matrix : Default (H.263)

Muxing mode : Packed bitstream

Codec ID : XVID

Codec ID/Hint : XviD

Duration : 1h 34mn

Bit rate : 1 854 Kbps

Width : 688 pixels

Height : 384 pixels

Display aspect ratio : 16:9

Frame rate : 23.976 fps

Color space : YUV

Chroma subsampling : 4:2:0

Bit depth : 8 bits

Scan type : Progressive

Bits/(Pixel*Frame) : 0.293

Stream size : 1.22 GiB (89%)

Writing library : XviD 1.1.2 (UTC 2006-11-01)



Audio

ID : 1

Format : AC-3

Format/Info : Audio Coding 3

Mode extension : CM (complete main)

Codec ID : 2000

Duration : 1h 34mn

Bit rate mode : Constant

Bit rate : 224 Kbps

Channel(s) : 2 channels

Channel positions : Front: L R

Sampling rate : 48.0 KHz

Bit depth : 16 bits

Stream size : 152 MiB (11%)

Alignment : Aligned on interleaves

Interleave, duration : 42 ms (1.00 video frame)

Interleave, preload duration : 512 ms













SOURCES:



VIDEO:Despicable Me Files ......Thanks tcao69 mate :)

AUDIO:Despicable Me Files ......Thanks tcao69 mate :)



NOTES:



IMAGiNE bringing you another release.......... Despicable Me



Well here we go with a nice PPVRiP for you to enjoy...

We we're sent the the files from a good friend so thanks go out to him for them... Thanks Bro

The video and audio on this release are not to bad at all considering what type of release it is.

We did do a few things to make it that much better for you though.Anyway for this we made a small script containing crop,resize,sharpness,noise reduction,chroma,brightness

contrast,rgb eq.

We adjusted the colours as they were quiet strong ......some slight noise to the video

which we removed aswell.

The audio ....we decided to leave it how it was on the vobs with a AC3 audio track....



Anyway Enjoy folks....